<?xml version="1.0" encoding="UTF-8"?>
<svg data-bbox="0 0 210.001 210" xmlns="http://www.w3.org/2000/svg" viewBox="0 0 210 210" height="210mm" width="210mm" data-type="color">
    <g>
        <path d="M1.882 209.094c-1.528-1.34-2.032-3.351-1.818-7.255.14-2.573 1.311-9.203 2.185-12.371.155-.566.024-1.771-.397-3.646-1.375-6.12-1.728-10.327-1.717-20.448.011-9.942.324-14.288 1.724-23.917.65-4.476.652-4.554.14-7.92-2.661-17.517-2.666-38.829-.012-56.856.491-3.334.49-3.619-.02-7.047C.562 60.226.154 54.697.141 44.914.128 34.806.439 31.028 1.82 24.497l.648-3.062-.808-3.345C-.117 10.728-.467 4.902.723 2.474 1.43 1.028 2.932-.004 4.322 0c1.454.004 3.64 1.087 5.767 2.857l1.795 1.493 1.969-1.293c6.479-4.255 15.474-3.9 25.153.994l1.66.84 1.898-.953C47.519 1.448 53.52.17 60.214.182c6.664.011 12.448 1.11 18.798 3.573l2.976 1.154 3.115-1.16C91.818 1.247 97.508.21 104.698.179c7.41-.031 13.46 1.038 20.199 3.569l3.093 1.161 2.977-1.154c6.35-2.462 12.134-3.562 18.8-3.573 6.665-.01 12.486 1.222 17.662 3.74l1.936.942 1.69-.854c9.796-4.953 19.258-5.191 25.587-.645l1.434 1.03 1.72-1.437c3.287-2.746 6.039-3.559 7.873-2.326 2.82 1.893 3.06 6.665.838 16.648l-.924 4.155.622 3.062c1.4 6.884 1.638 9.818 1.636 20.126-.003 10.246-.307 14.565-1.688 24.036-.576 3.947-.605 4.657-.28 6.88 2.824 19.288 2.82 40.851-.01 59.059-.311 1.997-.291 2.814.14 5.74 1.572 10.68 2.13 19.013 1.902 28.39-.18 7.445-.572 11.3-1.706 16.83l-.64 3.12.765 3.296c1.927 8.301 2.185 13.473.796 15.94-.393.697-1.07 1.452-1.506 1.677-1.938 1.002-4.945.087-7.722-2.352-.828-.727-1.633-1.322-1.79-1.322-.156 0-1.054.51-1.995 1.133-2.719 1.802-5.57 2.706-9.084 2.88-4.89.24-9.369-.77-15.052-3.397l-2.59-1.197-2.597 1.17c-5.865 2.64-11.083 3.622-18.185 3.423-6.083-.17-10.61-1.042-16.627-3.201-3.683-1.322-4.17-1.43-4.959-1.11-.481.196-2.435.876-4.342 1.512-6.092 2.031-11.26 2.87-17.681 2.87-6.698 0-12.035-.909-18.232-3.104-2.085-.74-4.186-1.35-4.667-1.356s-2.522.59-4.534 1.323c-5.611 2.047-10.167 2.902-16.323 3.063-4.383.115-5.571.045-8.404-.494-3.876-.737-7.748-1.953-10.266-3.224l-1.801-.91-3.256 1.445c-5.798 2.572-9.599 3.41-14.448 3.185-2.412-.112-3.585-.322-5.28-.947-2.201-.813-4.041-1.817-5.118-2.795-.576-.523-.63-.501-2.625 1.102-2.507 2.013-3.961 2.697-5.747 2.706-1.128.006-1.561-.157-2.407-.9m65.186-3.075c3.134-.496 7.632-1.648 9.438-2.417l1.21-.515-1.549-.786c-4.189-2.127-10.275-6.384-15.548-10.876-.411-.35-.79-.124-3.063 1.831-3.281 2.822-6.425 5.242-10.24 7.885l-3.001 2.079 1.386.583c6.401 2.695 13.615 3.443 21.367 2.216m44.047.16c4.036-.446 11.305-2.183 12.054-2.88.131-.123-1.116-.979-2.772-1.903-3.637-2.03-9.075-5.637-12.615-8.368-1.432-1.105-2.763-1.948-2.957-1.874-.194.075-1.45.981-2.792 2.015-3.491 2.69-8.647 6.108-12.299 8.154-1.732.971-3.043 1.872-2.913 2.002.376.377 7.34 2.21 9.876 2.6 4.914.756 9.204.831 14.418.255m42.152.316c4.176-.464 7.857-1.364 11.008-2.69l1.382-.582-2.549-1.752c-4.496-3.09-9.256-6.822-11.938-9.36l-1.222-1.155-2.832 2.301c-4.073 3.309-8.113 6.13-11.655 8.139l-3.086 1.75.965.404c2.894 1.21 9.113 2.593 13.217 2.938 3.855.324 3.86.324 6.71.008zM5.61 206.172c1.014-.523 3.7-2.635 3.7-2.91 0-.138-.526-.942-1.169-1.787-.642-.846-1.723-2.653-2.402-4.017l-1.234-2.479-.37 1.896c-.202 1.043-.452 3.347-.554 5.12-.243 4.213.197 5.12 2.029 4.177m25.14-.546a62 62 0 0 0 4.168-1.52l2.126-.878-2.126-1.478c-1.17-.813-4.08-3.428-6.467-5.812s-4.362-4.297-4.39-4.25c-.25.428-5.202 6.482-7.08 8.658-1.815 2.102-2.318 2.863-2.081 3.149.562.677 3.321 2.107 4.935 2.558 2.339.654 8.214.424 10.915-.427m159.26.427c1.868-.487 4.248-1.673 4.98-2.482.43-.474.313-.676-1.6-2.801-1.135-1.26-3.276-3.824-4.758-5.698-1.483-1.873-2.787-3.383-2.899-3.354s-1.162 1.11-2.334 2.402c-2.744 3.025-5.967 5.964-8.468 7.72l-1.984 1.393 2.12.876c1.846.764 4.953 1.765 6.786 2.189 1.425.329 6.544.175 8.157-.245m16.374-.62c.256-1.369-.067-6.436-.556-8.704l-.377-1.75-.795 1.729c-.437.95-1.532 2.836-2.433 4.19l-1.637 2.46.96.77c3.375 2.703 4.518 3.01 4.838 1.304m-163.183-5.738c4.016-2.52 9.191-6.461 13.181-10.037l1.13-1.012-2.167-2.23c-5.148-5.297-8.626-9.341-12.326-14.333a350 350 0 0 0-2.35-3.15c-.044-.049-1.955 2.576-4.247 5.833s-5.458 7.662-7.035 9.79c-1.577 2.13-2.867 3.97-2.867 4.092 0 .375 4.178 4.84 6.703 7.165 2.122 1.953 6.806 5.437 7.312 5.437.104 0 1.304-.7 2.666-1.555m42.086.058c2.986-1.526 8.353-4.793 11.243-6.844 3.083-2.188 5.518-4.057 5.53-4.244.007-.104-1.465-1.501-3.27-3.105-3.474-3.087-11.652-11.313-14.784-14.87-1.028-1.168-1.952-2.087-2.053-2.042-.1.044-1.97 2.062-4.152 4.484-2.183 2.421-6.409 6.884-9.39 9.916s-5.389 5.594-5.351 5.692c.275.71 7.164 5.947 10.79 8.203 3.12 1.943 7.539 4.294 8.082 4.301.234.003 1.744-.668 3.355-1.49m44.87.588c4.714-2.36 10.447-6.171 14.954-9.942l2.056-1.72-5.264-5.319c-2.896-2.925-7.16-7.414-9.476-9.975s-4.298-4.694-4.404-4.739-1.095.94-2.198 2.188c-3.261 3.691-11.107 11.582-14.644 14.729-2.661 2.367-3.224 3.002-2.95 3.332.558.672 6.33 4.841 9.3 6.717 4.219 2.665 9.668 5.602 10.438 5.626.205.007 1.19-.397 2.187-.897m42.023-.83c1.149-.794 3.138-2.38 4.422-3.524 2.283-2.035 6.848-6.927 6.853-7.343 0-.115-1.616-2.412-3.594-5.104a658 658 0 0 1-7.026-9.788l-3.43-4.893-2.356 3.143c-3.376 4.503-6.44 8.116-10.727 12.652l-3.75 3.968 1.222 1.156c4.583 4.336 14.919 11.707 15.893 11.334.223-.086 1.345-.806 2.493-1.6m-157.73-1.528c3.366-3.93 7.403-9.015 7.403-9.324 0-.148-.635-1.215-1.412-2.37-2.296-3.417-4.667-7.604-6.608-11.669-1.548-3.24-1.865-3.726-2.119-3.246-.4.757-4.215 12.236-5.014 15.087l-.637 2.275.647 1.955a50 50 0 0 0 1.61 4.076c.978 2.156 3.289 5.9 3.64 5.9.106 0 1.227-1.208 2.49-2.684m185.002.86c1.38-2.117 2.915-5.376 3.836-8.137l.647-1.939-.777-2.727c-1.075-3.77-4.91-15.127-5.104-15.11-.087.008-1.297 2.338-2.69 5.177-1.393 2.84-3.592 6.778-4.886 8.752s-2.354 3.684-2.354 3.8c0 .534 9.5 12.008 9.94 12.008.111 0 .736-.82 1.388-1.823m-91.148-15.355c3.466-3.081 12.569-12.24 15.557-15.654l1.805-2.062-3.376-4.063c-4.668-5.62-8.054-9.86-12.916-16.168-2.286-2.968-4.242-5.426-4.344-5.463s-1.04 1.071-2.083 2.462c-3.177 4.235-9.264 11.934-13.419 16.97-2.166 2.626-4.22 5.116-4.563 5.534l-.625.76 1.791 2.045c4.112 4.695 18.061 18.417 18.818 18.512.059.008 1.568-1.286 3.355-2.873m-42.252-3.02c5.201-5.262 13.558-14.302 13.558-14.666 0-.09-1.515-2.007-3.368-4.261-3.353-4.078-9.778-12.563-13.83-18.26-1.17-1.645-2.167-2.99-2.218-2.99s-1.766 2.46-3.812 5.469c-2.045 3.007-5.88 8.617-8.522 12.465s-4.851 7.195-4.91 7.438c-.12.492 3.556 5.476 7.637 10.357 3.295 3.94 9.124 10.063 9.58 10.063.185 0 2.833-2.527 5.885-5.615m87.356 2.212c5.738-5.967 13.855-16.131 13.618-17.05-.095-.369-16.477-24.715-17.049-25.34-.074-.08-.375.183-.669.584s-2.31 3.187-4.48 6.191c-4.427 6.13-9.135 12.238-12.368 16.048-1.926 2.27-2.122 2.608-1.77 3.063 2.699 3.482 18.499 19.907 19.15 19.907.163 0 1.769-1.531 3.568-3.403m-125.95-1.337a593 593 0 0 0 6.49-9.114l3.977-5.713c.524-.75.52-.762-.744-2.647-3.176-4.734-6.983-11.265-10.233-17.557l-2.69-5.208-.789 1.708c-1.533 3.322-5.247 11.987-7.47 17.43l-2.253 5.514 1.28 3.055c2.348 5.603 8.459 16.682 9.205 16.687.104.001 1.557-1.869 3.227-4.155m160.324 1.313c1.702-2.622 6.975-12.95 8.01-15.687l.445-1.177-2.416-5.97a509 509 0 0 0-7.292-17.035l-.78-1.733-2.85 5.525c-2.901 5.62-6.959 12.592-9.8 16.834-1.569 2.345-1.571 2.352-1.052 3.104 5.2 7.533 13.464 18.983 13.701 18.982.104 0 1.019-1.28 2.034-2.843M6.777 174.999c1.064-3.128 2.24-6.472 2.614-7.43l.679-1.744-1.28-3.652c-.704-2.01-1.926-6.006-2.716-8.881s-1.48-5.274-1.536-5.33c-.122-.12-.345 2.274-.795 8.516-.55 7.63.101 25.363.897 24.443.112-.129 1.073-2.793 2.137-5.922m199.539-8.75c.04-9.784-.49-19.241-1.007-17.936-.127.32-.7 2.354-1.274 4.52s-1.719 5.988-2.545 8.494l-1.5 4.556 1.675 4.617c.921 2.539 2.059 5.804 2.528 7.256s.939 2.836 1.046 3.077c.106.24.383-.744.615-2.188.299-1.862.433-5.463.462-12.396m-120.127-8.176c4.106-4.93 8.905-10.967 13.442-16.907l3.23-4.23-2.317-3.062c-2.435-3.218-12.213-16.79-16.13-22.388-1.816-2.596-2.37-3.207-2.647-2.917-.295.309-16.134 23.503-18.61 27.253l-.806 1.219 1.247 1.843c3.81 5.635 11.458 15.798 15.835 21.043 2.054 2.463 2.7 3.07 2.938 2.762.167-.218 1.885-2.295 3.818-4.616m46.587-.865c5.363-6.684 14.794-19.613 14.786-20.271-.003-.275-17.407-25.842-18.953-27.844l-.72-.932-1.88 2.721c-2.78 4.025-12.297 17.287-15.752 21.95-2.738 3.696-2.975 4.117-2.632 4.667 1.192 1.908 12.19 15.854 16.886 21.412 1.537 1.818 2.925 3.5 3.086 3.736.345.507.74.093 5.179-5.44m-83.37-7.448 8.666-12.698-4.099-6.377c-3.403-5.296-7.774-12.467-12.53-20.555l-.84-1.431-1.784 3.181c-.98 1.75-4.234 8.064-7.23 14.032l-5.45 10.85.64 1.546c1.85 4.481 13.072 24.15 13.778 24.15.1 0 4.082-5.714 8.848-12.698m122.81 8.55c3.27-5.236 6.9-11.723 9.555-17.072l2.063-4.156-1.238-2.698c-2.985-6.503-13.03-25.813-13.285-25.54-.047.05-1.038 1.733-2.2 3.738a462 462 0 0 1-11.363 18.521c-1.973 3.048-3.59 5.686-3.594 5.863-.007.38 17.026 25.492 17.29 25.492.1 0 1.347-1.867 2.772-4.148m-156.462-6.498c1.566-3.69 3.686-8.541 4.71-10.781l1.861-4.073-1.699-3.755c-2.178-4.814-5.147-12.281-7.095-17.848L12 110.981l-.477 1.602c-1.593 5.351-4.79 19.57-5.279 23.478-.323 2.583 2.962 16.9 5.588 24.354.1.283.316.026.613-.73.252-.64 1.74-4.185 3.308-7.874m184.144 2.916c1.624-5.632 3.514-13.86 3.852-16.77.147-1.263-.072-2.877-1.03-7.584-1.13-5.55-4.253-18.481-4.607-19.073-.086-.143-.835 1.694-1.665 4.083-1.727 4.972-4.76 12.634-7.047 17.804-.862 1.949-1.567 3.672-1.567 3.829s.863 2.172 1.918 4.477c2.064 4.512 6.308 14.426 7.44 17.381.382.998.788 1.72.902 1.604s.925-2.703 1.804-5.75M70.225 119.243l9.663-14.194-6.881-10.015a3764 3764 0 0 1-9.81-14.334c-2.35-3.463-3-4.243-3.283-3.937-1.015 1.094-9.4 14.585-14.255 22.937l-3.11 5.347 2.39 4.132c6.447 11.146 15.09 24.87 15.423 24.488.11-.127 4.55-6.618 9.863-14.424m37.58 11.058c2.866-3.863 10.516-14.528 15.088-21.035 1.564-2.225 2.779-4.214 2.7-4.42-.36-.94-20.292-28.707-20.603-28.704-.08.001-.927 1.08-1.881 2.398-9.183 12.682-12.135 16.789-15.128 21.047-1.91 2.719-3.534 5.101-3.608 5.294-.132.345 4.19 6.591 12.526 18.104 6.196 8.558 7.928 10.885 8.1 10.887.085.001 1.347-1.606 2.805-3.571m45.832-2.333c3.648-5.703 9.126-14.729 12.28-20.23l1.521-2.655-3.103-5.365c-5.543-9.584-14.023-23.08-14.532-23.132-.14-.014-4.625 6.393-9.967 14.238l-9.712 14.264 2.82 4.114c1.551 2.263 5.97 8.734 9.821 14.38s7.022 10.272 7.048 10.28c.025.006 1.746-2.646 3.824-5.894M35.121 111.415c1.261-2.326 2.533-4.623 2.825-5.104s.533-1.025.534-1.207c0-.183-.936-2.02-2.082-4.084s-4.355-8.211-7.132-13.663l-5.049-9.913-1.06 2.327c-1.852 4.062-5.264 12.917-7.4 19.204l-2.067 6.081 1.613 4.831c2.246 6.726 7.736 20.83 8.812 22.638.083.14 2.078-3.601 4.432-8.313s5.313-10.47 6.574-12.797m151.58 19.324c1.915-4.265 5.537-13.65 7.52-19.484l2.087-6.14-2.18-6.43c-2.44-7.192-7.934-21.092-8.34-21.1-.082-.002-1.44 2.589-3.019 5.757-2.407 4.833-6.773 13.24-10.487 20.198l-.856 1.604 3.55 6.563c1.953 3.61 5.152 9.804 7.11 13.766s3.598 7.21 3.645 7.22c.047.008.483-.872.97-1.954M6.51 118.107c1.036-4.082 2.273-8.698 2.749-10.26l.865-2.84-.702-2.264c-.914-2.947-3.42-12.404-4.077-15.39-.282-1.284-.6-2.437-.707-2.564-.78-.928-1.452 22.502-.897 31.293.425 6.73.669 9.664.792 9.54.052-.052.942-3.434 1.978-7.515m199.713-1.66c.411-6.798.236-21.942-.326-28.149-.2-2.207-.411-3.965-.47-3.905-.06.059-.686 2.52-1.392 5.47a299 299 0 0 1-2.7 10.328l-1.418 4.964.678 2.182c.373 1.2 1.514 5.464 2.535 9.474l2.082 8.167c.201.782.248.689.44-.875.118-.962.375-4.408.571-7.656M84.602 98.363c4.106-5.845 13.382-18.734 15.775-21.92 1.253-1.67 2.279-3.14 2.279-3.267 0-.87-20.165-26.075-20.7-25.873-.926.35-14.442 18.018-18.53 24.224L62.321 73.2l1.133 1.713c3.756 5.677 18.377 26.868 18.542 26.872.108.003 1.28-1.538 2.605-3.423m53.277-10.837c5.335-7.844 9.7-14.336 9.7-14.427 0-.398-8-11.496-12.224-16.955-2.962-3.83-7.015-8.715-7.332-8.839-.487-.19-20.7 25.057-20.7 25.856 0 .136.846 1.37 1.88 2.74 2.306 3.057 12.175 16.755 15.868 22.025 1.49 2.125 2.799 3.864 2.909 3.863s4.565-6.419 9.9-14.263m34.135 9.16c3.359-6.283 11.736-23.027 11.736-23.457 0-1.2-8.637-17.037-12.633-23.163l-1.682-2.579-.523.683c-.52.678-15.554 22.744-16.481 24.19-.485.757-.475.777 3.987 7.73 4.788 7.46 7.647 12.143 10.873 17.81 1.11 1.95 2.102 3.46 2.202 3.353.1-.105 1.235-2.16 2.521-4.567m-128.835.365c3.375-5.828 7.163-11.988 11.315-18.404l3.558-5.496-3.003-4.43C41.7 49.038 40.665 47.574 40.325 47.92c-1.309 1.33-8.436 13.652-11.79 20.385l-2.426 4.868 4.167 8.403c5.632 11.356 10.019 19.632 10.407 19.632.048 0 1.171-1.87 2.496-4.156M17.44 84.36c.66-1.645 1.99-4.77 2.953-6.945s1.752-4.087 1.752-4.25c0-.162-1.556-3.796-3.457-8.075-1.9-4.28-4.159-9.52-5.017-11.645-.86-2.125-1.658-3.766-1.775-3.646-.681.7-4.088 13.711-5.235 19.996l-.649 3.556L7.1 78.894c.986 5.029 4.39 19.178 4.762 19.798.085.14 1.105-2.354 2.266-5.542 1.162-3.189 2.653-7.144 3.313-8.789m182.499 7.644c1.573-6.274 3.423-14.936 3.807-17.831.214-1.619-.615-6.269-2.367-13.263-1.178-4.708-2.991-10.796-3.312-11.125-.125-.127-.464.398-.754 1.167-.96 2.549-4.545 10.944-7.031 16.462-1.347 2.991-2.45 5.562-2.45 5.714s.845 2.197 1.878 4.545c2.116 4.812 5.764 14.085 7.215 18.344.531 1.558 1.065 2.733 1.187 2.61.121-.12.943-3.101 1.827-6.623M65 63.3c4.22-5.833 9.785-13.052 12.758-16.55 1.02-1.2 1.853-2.272 1.853-2.384 0-.394-9.577-10.73-14.42-15.563-4.84-4.831-4.899-4.877-5.53-4.375-1.241.987-7.357 7.573-9.828 10.583-3.045 3.71-6.976 8.972-6.976 9.34 0 .147 3.897 6 8.66 13.004 8.53 12.546 8.667 12.727 9.116 12.043.25-.381 2.215-3.126 4.366-6.098m42.5 3.71c4.23-5.547 9.827-12.586 14.027-17.644l4.175-5.028-4.047-4.465c-4.98-5.492-15.905-15.958-16.66-15.958-.782 0-12.21 11.04-17.597 17l-3.106 3.436 2.86 3.418c3.922 4.684 9.407 11.541 13.888 17.362 2.06 2.678 3.844 4.868 3.963 4.868s1.242-1.345 2.496-2.99m45.386-1.532c1.524-2.246 5.351-7.852 8.504-12.458s5.733-8.52 5.733-8.698c0-.976-9.134-12.161-14.261-17.464l-2.936-3.037-2.56 2.448c-4.642 4.44-16.656 17.221-16.93 18.011-.042.123 1.012 1.53 2.343 3.127 4.514 5.417 12.8 16.38 15.844 20.966.602.906 1.183 1.544 1.292 1.418.11-.126 1.447-2.067 2.971-4.313M28.06 61.685c2.649-4.925 6.87-12.063 9.016-15.243l1.43-2.119-4.912-6.923a1688 1688 0 0 0-7.086-9.923c-2.528-3.49-2.067-3.577-4.856.93-3.182 5.143-7.673 14.477-7.673 15.946 0 .906 5.765 14.907 9.178 22.29l1.079 2.334.736-1.458c.405-.802 1.795-3.427 3.088-5.834m158.804 4.886c1.765-3.842 4.72-10.752 7.112-16.635l2.287-5.625-1.402-3.271c-2.46-5.738-6.2-12.664-8.422-15.598l-.721-.952-2.564 3.477c-1.41 1.913-4.608 6.372-7.107 9.91l-4.543 6.432 2.14 3.292a196 196 0 0 1 10.336 17.948c.917 1.804 1.707 3.28 1.756 3.281.05 0 .557-1.016 1.128-2.259m19.522-18.594c.142-5.712.093-9.439-.163-12.396-.678-7.816-.437-7.742-2.827-.875a720 720 0 0 1-2.748 7.785l-.666 1.805 1.493 4.466c.821 2.456 1.944 6.171 2.496 8.257l1.236 4.666c.41 1.533.958-4.843 1.179-13.708M5.76 58.04c.506-2.006 1.67-5.927 2.585-8.715l1.664-5.068-.819-2.223c-.45-1.223-1.625-4.613-2.61-7.533s-1.872-5.315-1.97-5.323c-.236-.018-.455 1.647-.868 6.584-.557 6.652.144 27.032.9 26.155.11-.127.613-1.872 1.118-3.877M88.7 34.405c3.044-3.279 11.938-11.734 12.968-12.328.222-.129.404-.337.404-.464 0-.35-4.106-3.452-8.022-6.061-3.828-2.55-7.998-4.956-10.539-6.08l-1.627-.72-2.838 1.458c-1.561.802-4.402 2.483-6.315 3.737-3.36 2.203-9.173 6.649-9.604 7.346-.13.21 1.69 2.23 4.773 5.297 2.742 2.727 7.048 7.237 9.57 10.024l4.587 5.066 1.621-1.807c.891-.994 3.15-3.455 5.021-5.468m43.553 2.488c1.722-1.925 5.776-6.168 9.009-9.43l5.878-5.931-1.313-1.18c-3.596-3.231-10.661-8.03-15.11-10.263l-2.712-1.362-3.137 1.577c-3.464 1.741-7.56 4.203-10.69 6.426-3.742 2.657-6.293 4.643-6.21 4.833.046.104 1.462 1.418 3.146 2.92 3.48 3.106 11.68 11.361 14.732 14.832l2.041 2.323.618-.622c.34-.342 2.026-2.197 3.748-4.123m-89.176 1.094c3.52-4.716 6.804-8.565 10.781-12.637 1.97-2.017 3.583-3.745 3.583-3.838 0-.242-6.123-5.337-8.897-7.404-3.08-2.296-7.421-5.07-7.933-5.07-1.217 0-6.82 4.417-10.54 8.309-4.226 4.42-4.296 3.258.6 9.983 2.31 3.174 5.44 7.57 6.953 9.769 1.514 2.198 2.833 4.003 2.933 4.01.099.008 1.233-1.397 2.52-3.122m128.566.15c1.123-1.633 4.252-6.031 6.953-9.775l4.912-6.806-.507-.79c-.279-.434-2.16-2.43-4.182-4.435-3.663-3.634-8.374-7.292-9.39-7.292-1.133 0-10.336 6.61-15.313 10.998l-1.722 1.518 3.672 3.732c3.822 3.884 8.347 9.204 11.39 13.393.977 1.343 1.859 2.439 1.96 2.434.102-.005 1.104-1.345 2.227-2.977M14.501 34.268c2.145-4.342 3.638-6.977 5.66-9.99.781-1.164 1.496-2.312 1.588-2.552.253-.66-9.059-12.104-9.848-12.104s-3.9 5.925-5.22 9.945l-.631 1.924 1.081 3.618c.977 3.266 3.801 11.705 4.565 13.64l.304.77.313-.73c.173-.4 1.157-2.435 2.188-4.52m183.875 4.303c.685-1.727 3.256-9.458 4.367-13.133l1.172-3.871-.461-1.585c-1.07-3.678-4.536-10.36-5.374-10.36-.782 0-10.102 11.447-9.851 12.099.09.237.94 1.583 1.885 2.99 1.884 2.801 5.195 8.855 6.777 12.391.553 1.238 1.042 2.255 1.087 2.26.044.006.223-.35.398-.791M108.554 16.54c3.778-2.857 9.164-6.362 12.693-8.26 1.16-.625 2.112-1.207 2.115-1.295.008-.252-4.559-1.66-7.433-2.29-8.49-1.866-17.72-1.448-26.327 1.192-1.644.505-2.986.994-2.982 1.087.004.094 1.362.91 3.018 1.815 3.765 2.057 8.821 5.41 12.435 8.247 1.524 1.197 2.8 2.184 2.835 2.194s1.675-1.2 3.646-2.69m-47.58 1.942c.56-.675 6.975-5.557 9.716-7.394a66 66 0 0 1 4.623-2.784c1.272-.68 2.172-1.324 1.999-1.43-1.3-.804-7.06-2.296-11.48-2.974-5.826-.895-13.692-.054-19.145 2.046l-2.489.959 2.757 1.843c2.734 1.828 9.131 6.781 11.654 9.024 1.462 1.3 1.792 1.4 2.364.71m91.126-1.307c3.024-2.636 7.804-6.32 10.89-8.395 1.498-1.006 2.676-1.877 2.618-1.935s-1.19-.505-2.515-.993c-7.135-2.63-15.719-2.996-23.96-1.018-2.941.706-6.431 1.89-6.431 2.184 0 .145.754.645 1.677 1.11 3.474 1.755 14 9.238 14.79 10.514.359.582.88.321 2.93-1.467M29.287 13.256c1.8-1.77 4.21-3.861 5.358-4.645s2.086-1.515 2.086-1.625c0-.327-4.319-2.04-6.692-2.653-3.362-.87-6.494-1.01-9.23-.411-2.108.46-5.674 2.092-6.108 2.794-.098.158.783 1.372 1.956 2.698s3.373 3.95 4.888 5.83l2.754 3.418.858-1.093c.473-.6 2.331-2.542 4.13-4.313m158.594 2.71a219 219 0 0 1 4.854-5.835c1.493-1.726 2.636-3.265 2.54-3.42-.096-.156-.998-.743-2.005-1.306-3.57-1.997-8.288-2.376-13.33-1.072-2.304.596-6.695 2.324-6.687 2.632.002.098.942.834 2.087 1.636 2.41 1.689 7.09 6.067 8.993 8.416.722.89 1.334 1.625 1.36 1.633s1.01-1.2 2.188-2.684M5.629 12.9c.547-1.084 1.61-2.889 2.363-4.01L9.36 6.85 8.189 5.81c-.644-.573-1.767-1.358-2.495-1.745-1.881-.997-2.071-.706-2.071 3.167 0 2.66.594 7.641.912 7.641.056 0 .548-.887 1.094-1.972m200.694-5.23c.041-4.313-.123-4.621-1.944-3.655-.677.36-1.805 1.147-2.507 1.752l-1.276 1.099 1.314 1.888c.723 1.04 1.812 2.874 2.42 4.077l1.108 2.187.425-1.896c.234-1.042.44-3.496.46-5.452" fill="#eea302" data-color="1"/>
    </g>
</svg>
